<?xml version="1.0" encoding="UTF-8" standalone="no"?>
<svg
   xmlns:dc="http://purl.org/dc/elements/1.1/"
   xmlns:cc="http://creativecommons.org/ns#"
   xmlns:rdf="http://www.w3.org/1999/02/22-rdf-syntax-ns#"
   xmlns:svg="http://www.w3.org/2000/svg"
   xmlns="http://www.w3.org/2000/svg"
   xmlns:sodipodi="http://sodipodi.sourceforge.net/DTD/sodipodi-0.dtd"
   xmlns:inkscape="http://www.inkscape.org/namespaces/inkscape"
   width="800"
   height="1200"
   viewBox="0 0 211.66666 317.50001"
   version="1.1"
   id="svg8"
   inkscape:version="1.0.1 (c497b03c, 2020-09-10)"
   sodipodi:docname="1984.svg"
   inkscape:export-filename="/Users/darshakparikh/Projects/alt-book-covers/1984.png"
   inkscape:export-xdpi="96"
   inkscape:export-ydpi="96">
  <defs
     id="defs2" />
  <sodipodi:namedview
     id="base"
     pagecolor="#142d4b"
     bordercolor="#666666"
     borderopacity="1.0"
     inkscape:pageopacity="1"
     inkscape:pageshadow="2"
     inkscape:zoom="0.59583333"
     inkscape:cx="550.40486"
     inkscape:cy="850.06993"
     inkscape:document-units="mm"
     inkscape:current-layer="layer3"
     inkscape:document-rotation="0"
     showgrid="false"
     units="px"
     inkscape:window-width="1680"
     inkscape:window-height="923"
     inkscape:window-x="0"
     inkscape:window-y="25"
     inkscape:window-maximized="1"
     fit-margin-top="0"
     fit-margin-left="0"
     fit-margin-right="0"
     fit-margin-bottom="0" />
  <metadata
     id="metadata5">
    <rdf:RDF>
      <cc:Work
         rdf:about="">
        <dc:format>image/svg+xml</dc:format>
        <dc:type
           rdf:resource="http://purl.org/dc/dcmitype/StillImage" />
        <dc:title />
      </cc:Work>
    </rdf:RDF>
  </metadata>
  <g
     inkscape:label="Overalls"
     inkscape:groupmode="layer"
     id="layer1"
     style="display:inline"
     sodipodi:insensitive="true">
    <g
       aria-label="1984"
       id="text853"
       style="font-size:105.833px;line-height:1.25;font-family:Poppins;-inkscape-font-specification:Poppins;stroke-width:0.264583">
      <circle
         style="fill:none;fill-opacity:1;stroke:#a1a1a1;stroke-width:2.11667;stroke-linecap:round;stroke-miterlimit:4;stroke-dasharray:none;stroke-opacity:1"
         id="path864"
         cx="41.833771"
         cy="80.1558"
         r="7.4009323" />
      <circle
         style="fill:none;fill-opacity:1;stroke:#a1a1a1;stroke-width:2.11667;stroke-linecap:round;stroke-miterlimit:4;stroke-dasharray:none;stroke-opacity:1"
         id="circle888"
         cx="-167.25742"
         cy="80.1558"
         r="7.4009323"
         transform="scale(-1,1)" />
      <path
         style="fill:#3a77c0;fill-opacity:1;stroke:#2c63a4;stroke-width:1.05833;stroke-linecap:butt;stroke-linejoin:miter;stroke-miterlimit:4;stroke-dasharray:none;stroke-opacity:1"
         d="m -7.7709788,142.17191 c 0,0 19.7215688,-42.446587 37.7447538,-55.877039 6.437665,-4.797196 145.208865,-4.64259 151.349065,0 19.4131,14.678189 46.99592,55.877039 46.99592,55.877039 l -3.1824,205.37587 H -10.213287 Z"
         id="path859"
         sodipodi:nodetypes="csscccc" />
      <g
         id="g891"
         style="opacity:1;fill:#29415f;fill-opacity:1"
         transform="translate(-6.5203188e-4,110.31434)" />
      <rect
         style="fill:#3a77c0;fill-opacity:1;stroke:#2c63a4;stroke-width:1.05833;stroke-linecap:round;stroke-miterlimit:4;stroke-dasharray:none;stroke-opacity:1"
         id="rect862"
         width="28.985563"
         height="101.73255"
         x="18.328669"
         y="-21.866247"
         ry="4.4405594"
         transform="rotate(-6.1829006)" />
      <rect
         style="fill:#3a77c0;fill-opacity:1;stroke:#2c63a4;stroke-width:1.05833;stroke-linecap:round;stroke-miterlimit:4;stroke-dasharray:none;stroke-opacity:1"
         id="rect890"
         width="28.985563"
         height="101.73255"
         x="-189.54619"
         y="-44.385937"
         ry="4.4405594"
         transform="matrix(-0.99418315,-0.10770266,-0.10770266,0.99418315,0,0)" />
    </g>
  </g>
  <g
     inkscape:groupmode="layer"
     id="layer3"
     inkscape:label="Text"
     style="display:inline">
    <g
       id="g873"
       style="font-size:105.833px;line-height:1.25;font-family:Poppins;-inkscape-font-specification:Poppins;display:inline;opacity:1;fill:#29415f;fill-opacity:1;stroke-width:0.264583"
       transform="translate(-6.5203123e-4,110.31434)">
      <path
         style="color:#000000;font-style:normal;font-variant:normal;font-weight:bold;font-stretch:normal;font-size:105.833px;line-height:1.25;font-family:Teko;-inkscape-font-specification:'Teko Bold';font-variant-ligatures:normal;font-variant-position:normal;font-variant-caps:normal;font-variant-numeric:normal;font-variant-alternates:normal;font-variant-east-asian:normal;font-feature-settings:normal;font-variation-settings:normal;text-indent:0;text-align:start;text-decoration:none;text-decoration-line:none;text-decoration-style:solid;text-decoration-color:#000000;letter-spacing:normal;word-spacing:normal;text-transform:none;writing-mode:lr-tb;direction:ltr;text-orientation:mixed;dominant-baseline:auto;baseline-shift:baseline;text-anchor:start;white-space:normal;shape-padding:0;shape-margin:0;inline-size:0;clip-rule:nonzero;display:inline;overflow:visible;visibility:visible;isolation:auto;mix-blend-mode:normal;color-interpolation:sRGB;color-interpolation-filters:linearRGB;solid-color:#000000;solid-opacity:1;vector-effect:none;fill:#29415f;fill-opacity:1;fill-rule:nonzero;stroke:none;stroke-width:0.264583;stroke-linecap:butt;stroke-linejoin:miter;stroke-miterlimit:4;stroke-dasharray:none;stroke-dashoffset:0;stroke-opacity:1;color-rendering:auto;image-rendering:auto;shape-rendering:auto;text-rendering:auto;enable-background:accumulate;stop-color:#000000;stop-opacity:1"
         d="M 38.446651,87.735908 V 155.68069 H 19.925876 v -54.71566 h -9.52497 V 87.735908 Z"
         id="path875" />
      <path
         style="color:#000000;font-style:normal;font-variant:normal;font-weight:bold;font-stretch:normal;font-size:105.833px;line-height:1.25;font-family:Teko;-inkscape-font-specification:'Teko Bold';font-variant-ligatures:normal;font-variant-position:normal;font-variant-caps:normal;font-variant-numeric:normal;font-variant-alternates:normal;font-variant-east-asian:normal;font-feature-settings:normal;font-variation-settings:normal;text-indent:0;text-align:start;text-decoration:none;text-decoration-line:none;text-decoration-style:solid;text-decoration-color:#000000;letter-spacing:normal;word-spacing:normal;text-transform:none;writing-mode:lr-tb;direction:ltr;text-orientation:mixed;dominant-baseline:auto;baseline-shift:baseline;text-anchor:start;white-space:normal;shape-padding:0;shape-margin:0;inline-size:0;clip-rule:nonzero;display:inline;overflow:visible;visibility:visible;isolation:auto;mix-blend-mode:normal;color-interpolation:sRGB;color-interpolation-filters:linearRGB;solid-color:#000000;solid-opacity:1;vector-effect:none;fill:#29415f;fill-opacity:1;fill-rule:nonzero;stroke:none;stroke-width:0.264583;stroke-linecap:butt;stroke-linejoin:miter;stroke-miterlimit:4;stroke-dasharray:none;stroke-dashoffset:0;stroke-opacity:1;color-rendering:auto;image-rendering:auto;shape-rendering:auto;text-rendering:auto;enable-background:accumulate;stop-color:#000000;stop-opacity:1"
         d="m 10.269531,87.603516 v 13.494144 h 9.523438 V 155.8125 H 38.578125 V 87.603516 h -0.130859 z m 0.263672,0.265625 h 27.78125 V 155.54883 H 20.058594 v -54.7168 h -9.525391 z"
         id="path877" />
    </g>
    <g
       id="g879"
       style="font-size:105.833px;line-height:1.25;font-family:Poppins;-inkscape-font-specification:Poppins;display:inline;opacity:1;fill:#29415f;fill-opacity:1;stroke-width:0.264583"
       transform="translate(-6.5203123e-4,110.31434)">
      <path
         style="color:#000000;font-style:normal;font-variant:normal;font-weight:bold;font-stretch:normal;font-size:105.833px;line-height:1.25;font-family:Teko;-inkscape-font-specification:'Teko Bold';font-variant-ligatures:normal;font-variant-position:normal;font-variant-caps:normal;font-variant-numeric:normal;font-variant-alternates:normal;font-variant-east-asian:normal;font-feature-settings:normal;font-variation-settings:normal;text-indent:0;text-align:start;text-decoration:none;text-decoration-line:none;text-decoration-style:solid;text-decoration-color:#000000;letter-spacing:normal;word-spacing:normal;text-transform:none;writing-mode:lr-tb;direction:ltr;text-orientation:mixed;dominant-baseline:auto;baseline-shift:baseline;text-anchor:start;white-space:normal;shape-padding:0;shape-margin:0;inline-size:0;clip-rule:nonzero;display:inline;overflow:visible;visibility:visible;isolation:auto;mix-blend-mode:normal;color-interpolation:sRGB;color-interpolation-filters:linearRGB;solid-color:#000000;solid-opacity:1;vector-effect:none;fill:#29415f;fill-opacity:1;fill-rule:nonzero;stroke:none;stroke-width:0.264583;stroke-linecap:butt;stroke-linejoin:miter;stroke-miterlimit:4;stroke-dasharray:none;stroke-dashoffset:0;stroke-opacity:1;color-rendering:auto;image-rendering:auto;shape-rendering:auto;text-rendering:auto;enable-background:accumulate;stop-color:#000000;stop-opacity:1"
         d="M 61.334691,87.735908 H 75.41048 c 10.371634,0 15.557451,4.374431 15.557451,13.123292 v 41.6982 c 0,8.74886 -5.185817,13.12329 -15.557451,13.12329 H 62.181355 c -10.371634,0 -15.557451,-4.37443 -15.557451,-13.12329 v -7.09081 h 17.99161 v 4.65665 c 0,1.55222 0.881942,2.32833 2.645825,2.32833 h 3.069157 c 1.763883,0 2.645825,-0.77611 2.645825,-2.32833 v -10.5833 h -11.64163 c -10.371634,0 -15.557451,-4.37443 -15.557451,-13.12329 V 100.8592 c 0,-8.748861 5.185817,-13.123292 15.557451,-13.123292 z"
         id="path881"
         sodipodi:nodetypes="sssssssccsssscssss" />
      <path
         style="color:#000000;font-style:normal;font-variant:normal;font-weight:bold;font-stretch:normal;font-size:105.833px;line-height:1.25;font-family:Teko;-inkscape-font-specification:'Teko Bold';font-variant-ligatures:normal;font-variant-position:normal;font-variant-caps:normal;font-variant-numeric:normal;font-variant-alternates:normal;font-variant-east-asian:normal;font-feature-settings:normal;font-variation-settings:normal;text-indent:0;text-align:start;text-decoration:none;text-decoration-line:none;text-decoration-style:solid;text-decoration-color:#000000;letter-spacing:normal;word-spacing:normal;text-transform:none;writing-mode:lr-tb;direction:ltr;text-orientation:mixed;dominant-baseline:auto;baseline-shift:baseline;text-anchor:start;white-space:normal;shape-padding:0;shape-margin:0;inline-size:0;clip-rule:nonzero;display:inline;overflow:visible;visibility:visible;isolation:auto;mix-blend-mode:normal;color-interpolation:sRGB;color-interpolation-filters:linearRGB;solid-color:#000000;solid-opacity:1;vector-effect:none;fill:#29415f;fill-opacity:1;fill-rule:nonzero;stroke:none;stroke-width:0.264583;stroke-linecap:butt;stroke-linejoin:miter;stroke-miterlimit:4;stroke-dasharray:none;stroke-dashoffset:0;stroke-opacity:1;color-rendering:auto;image-rendering:auto;shape-rendering:auto;text-rendering:auto;enable-background:accumulate;stop-color:#000000;stop-opacity:1"
         d="m 61.333984,87.603516 c -5.204415,0 -9.12582,1.097258 -11.751953,3.3125 -2.626133,2.215241 -3.9375,5.54279 -3.9375,9.943364 v 15.55664 c 0,4.40056 1.311367,7.72811 3.9375,9.94336 2.626133,2.21524 6.547538,3.3125 11.751953,3.3125 H 72.84375 v 10.45117 c 0,0.75105 -0.209052,1.28732 -0.617188,1.64648 -0.408135,0.35916 -1.033945,0.54883 -1.896484,0.54883 h -3.068359 c -0.862539,0 -1.488349,-0.18967 -1.896485,-0.54883 -0.408135,-0.35916 -0.617187,-0.89543 -0.617187,-1.64648 v -4.78907 H 46.492188 v 7.22266 c 0,4.40057 1.309413,7.73007 3.935546,9.94531 2.626133,2.21524 6.549491,3.31055 11.753907,3.31055 h 13.228515 c 5.204416,0 9.127773,-1.09531 11.753906,-3.31055 2.626134,-2.21524 3.935547,-5.54474 3.935547,-9.94531 v -41.69726 c 0,-4.400574 -1.309413,-7.728123 -3.935547,-9.943364 -2.626133,-2.215242 -6.54949,-3.3125 -11.753906,-3.3125 z m 0,0.265625 h 14.076172 c 5.167218,0 9.024301,1.088857 11.583985,3.248047 2.559684,2.159189 3.841796,5.393895 3.841797,9.742192 v 41.69726 c 0,4.34829 -1.282113,7.583 -3.841797,9.74219 -2.559684,2.15919 -6.416767,3.25 -11.583985,3.25 H 62.181641 c -5.167219,0 -9.024301,-1.09081 -11.583985,-3.25 -2.559684,-2.15919 -3.841797,-5.3939 -3.841797,-9.74219 v -6.95703 h 17.726563 v 4.52344 c 0,0.80116 0.233225,1.42875 0.707031,1.8457 0.473807,0.41695 1.170921,0.61523 2.072266,0.61523 h 3.068359 c 0.901345,0 1.598459,-0.19828 2.072266,-0.61523 0.473806,-0.41695 0.707031,-1.04454 0.707031,-1.8457 V 129.4082 H 61.333984 c -5.167218,0 -9.022347,-1.09081 -11.582031,-3.25 -2.559684,-2.15919 -3.841797,-5.39389 -3.841797,-9.74218 v -15.55664 c 0,-4.348297 1.282113,-7.583003 3.841797,-9.742192 2.559684,-2.15919 6.414813,-3.248047 11.582031,-3.248047 z m 5.080078,12.962889 c -0.901344,0 -1.596506,0.19829 -2.070312,0.61524 -0.473806,0.41695 -0.707031,1.04453 -0.707031,1.8457 v 11.74805 c 0,0.80116 0.233225,1.42875 0.707031,1.8457 0.473806,0.41695 1.168968,0.61523 2.070312,0.61523 h 6.695313 v -14.20898 c 0,-0.80117 -0.233225,-1.42875 -0.707031,-1.8457 -0.473807,-0.41695 -1.170921,-0.61524 -2.072266,-0.61524 z m 0,0.26563 h 3.916016 c 0.862539,0 1.488349,0.18966 1.896484,0.54882 0.408136,0.35916 0.617188,0.89543 0.617188,1.64649 v 13.94336 h -6.429688 c -0.862538,0 -1.488349,-0.18967 -1.896484,-0.54883 -0.408135,-0.35916 -0.617187,-0.89543 -0.617187,-1.64648 v -11.74805 c 0,-0.75106 0.209052,-1.28733 0.617187,-1.64649 0.408135,-0.35916 1.033946,-0.54882 1.896484,-0.54882 z"
         id="path883" />
    </g>
    <g
       id="g885"
       style="font-size:105.833px;line-height:1.25;font-family:Poppins;-inkscape-font-specification:Poppins;display:inline;opacity:1;fill:#29415f;fill-opacity:1;stroke-width:0.264583"
       transform="translate(-6.5203123e-4,110.31434)">
      <path
         style="color:#000000;font-style:normal;font-variant:normal;font-weight:bold;font-stretch:normal;font-size:105.833px;line-height:1.25;font-family:Teko;-inkscape-font-specification:'Teko Bold';font-variant-ligatures:normal;font-variant-position:normal;font-variant-caps:normal;font-variant-numeric:normal;font-variant-alternates:normal;font-variant-east-asian:normal;font-feature-settings:normal;font-variation-settings:normal;text-indent:0;text-align:start;text-decoration:none;text-decoration-line:none;text-decoration-style:solid;text-decoration-color:#000000;letter-spacing:normal;word-spacing:normal;text-transform:none;writing-mode:lr-tb;direction:ltr;text-orientation:mixed;dominant-baseline:auto;baseline-shift:baseline;text-anchor:start;white-space:normal;shape-padding:0;shape-margin:0;inline-size:0;clip-rule:nonzero;display:inline;overflow:visible;visibility:visible;isolation:auto;mix-blend-mode:normal;color-interpolation:sRGB;color-interpolation-filters:linearRGB;solid-color:#000000;solid-opacity:1;vector-effect:none;fill:#29415f;fill-opacity:1;fill-rule:nonzero;stroke:none;stroke-width:0.264583;stroke-linecap:butt;stroke-linejoin:miter;stroke-miterlimit:4;stroke-dasharray:none;stroke-dashoffset:0;stroke-opacity:1;color-rendering:auto;image-rendering:auto;shape-rendering:auto;text-rendering:auto;enable-background:accumulate;stop-color:#000000;stop-opacity:1"
         d="m 143.89932,100.8592 v 8.25497 c 0,6.13832 -1.69333,10.1247 -5.07999,11.95913 1.97555,0.84667 3.31611,2.15194 4.02166,3.91582 0.70555,1.69333 1.05833,4.02166 1.05833,6.98498 v 10.5833 c 0,8.74886 -5.18582,13.12329 -15.55746,13.12329 h -14.18162 c -10.37163,0 -15.557448,-4.37443 -15.557448,-13.12329 v -10.5833 c 0,-5.78553 1.658048,-9.41913 4.974148,-10.9008 -3.3161,-1.83443 -4.974148,-5.82081 -4.974148,-11.95913 v -8.25497 c 0,-8.748861 5.185818,-13.123292 15.557448,-13.123292 h 14.18162 c 10.37164,0 15.55746,4.374431 15.55746,13.123292 z"
         id="path887"
         sodipodi:nodetypes="ssccsssssscsssss" />
      <path
         style="color:#000000;font-style:normal;font-variant:normal;font-weight:bold;font-stretch:normal;font-size:105.833px;line-height:1.25;font-family:Teko;-inkscape-font-specification:'Teko Bold';font-variant-ligatures:normal;font-variant-position:normal;font-variant-caps:normal;font-variant-numeric:normal;font-variant-alternates:normal;font-variant-east-asian:normal;font-feature-settings:normal;font-variation-settings:normal;text-indent:0;text-align:start;text-decoration:none;text-decoration-line:none;text-decoration-style:solid;text-decoration-color:#000000;letter-spacing:normal;word-spacing:normal;text-transform:none;writing-mode:lr-tb;direction:ltr;text-orientation:mixed;dominant-baseline:auto;baseline-shift:baseline;text-anchor:start;white-space:normal;shape-padding:0;shape-margin:0;inline-size:0;clip-rule:nonzero;display:inline;overflow:visible;visibility:visible;isolation:auto;mix-blend-mode:normal;color-interpolation:sRGB;color-interpolation-filters:linearRGB;solid-color:#000000;solid-opacity:1;vector-effect:none;fill:#29415f;fill-opacity:1;fill-rule:nonzero;stroke:none;stroke-width:0.264583;stroke-linecap:butt;stroke-linejoin:miter;stroke-miterlimit:4;stroke-dasharray:none;stroke-dashoffset:0;stroke-opacity:1;color-rendering:auto;image-rendering:auto;shape-rendering:auto;text-rendering:auto;enable-background:accumulate;stop-color:#000000;stop-opacity:1"
         d="m 114.16016,87.603516 c -5.20442,0 -9.12778,1.097258 -11.75391,3.3125 -2.626133,2.215241 -3.935547,5.54279 -3.935547,9.943364 v 8.2539 c 0,6.05649 1.634897,10.04684 4.890627,11.95313 -1.59607,0.76533 -2.82549,2.01553 -3.634768,3.78906 -0.840032,1.84092 -1.255859,4.21374 -1.255859,7.11914 v 10.58203 c 0,4.40057 1.309414,7.73007 3.935547,9.94531 2.62613,2.21524 6.54949,3.31055 11.75391,3.31055 h 14.18164 c 5.20442,0 9.12777,-1.09531 11.7539,-3.31055 2.62614,-2.21524 3.93555,-5.54474 3.93555,-9.94531 v -10.58203 c 0,-2.97293 -0.3527,-5.31667 -1.06836,-7.03516 v -0.002 c -0.69459,-1.73532 -2.02991,-3.01561 -3.92187,-3.875 3.32088,-1.90647 4.99023,-5.8947 4.99023,-11.94922 v -8.2539 c 0,-4.400574 -1.30941,-7.728123 -3.93555,-9.943364 -2.62613,-2.215242 -6.54948,-3.3125 -11.7539,-3.3125 z m 0,0.265625 h 14.18164 c 5.16722,0 9.02234,1.088857 11.58203,3.248047 2.55968,2.159189 3.84375,5.393895 3.84375,9.742192 v 8.2539 c 0,6.11399 -1.6794,10.03875 -5.01172,11.84375 l -0.24024,0.13086 0.25196,0.10742 c 1.95022,0.83581 3.25872,2.11263 3.95117,3.84375 0.69502,1.66805 1.04883,3.98273 1.04883,6.93555 v 10.58203 c 0,4.34829 -1.28407,7.583 -3.84375,9.74219 -2.55969,2.15919 -6.41481,3.25 -11.58203,3.25 h -14.18164 c -5.16722,0 -9.02235,-1.09081 -11.58204,-3.25 -2.55968,-2.15919 -3.843745,-5.3939 -3.843745,-9.74219 v -10.58203 c 0,-2.88013 0.414405,-5.21709 1.232422,-7.00977 0.818013,-1.79267 2.035293,-3.04373 3.664063,-3.77148 l 0.24219,-0.10742 -0.23243,-0.12891 c -3.2614,-1.80418 -4.906245,-5.72925 -4.906245,-11.84375 v -8.2539 c 0,-4.348297 1.284065,-7.583003 3.843745,-9.742192 2.55969,-2.15919 6.41482,-3.248047 11.58204,-3.248047 z m 4.76172,12.751949 c -0.90135,0 -1.59651,0.19829 -2.07032,0.61524 -0.4738,0.41695 -0.70703,1.04454 -0.70703,1.8457 v 10.26563 c 0,0.80116 0.23323,1.42875 0.70703,1.8457 0.47381,0.41695 1.16897,0.61523 2.07032,0.61523 h 4.6582 c 0.90134,0 1.5965,-0.19828 2.07031,-0.61523 0.47381,-0.41695 0.70703,-1.04454 0.70703,-1.8457 v -10.26563 c 0,-0.80116 -0.23322,-1.42875 -0.70703,-1.8457 -0.47381,-0.41695 -1.16897,-0.61524 -2.07031,-0.61524 z m 0,0.26368 h 4.6582 c 0.86254,0 1.48835,0.19162 1.89648,0.55078 0.40814,0.35915 0.61719,0.89543 0.61719,1.64648 v 10.26563 c 0,0.75105 -0.20905,1.28732 -0.61719,1.64648 -0.40813,0.35916 -1.03394,0.54883 -1.89648,0.54883 h -4.6582 c -0.86255,0 -1.48835,-0.18967 -1.89649,-0.54883 -0.40814,-0.35916 -0.61523,-0.89543 -0.61523,-1.64648 v -10.26563 c 0,-0.75105 0.20709,-1.28733 0.61523,-1.64648 0.40814,-0.35916 1.03394,-0.55078 1.89649,-0.55078 z m 0,25.77148 c -0.90135,0 -1.59651,0.19829 -2.07032,0.61523 -0.4738,0.41695 -0.70703,1.04455 -0.70703,1.84571 v 11.21679 c 0,0.80117 0.23323,1.42876 0.70703,1.84571 0.47381,0.41695 1.16897,0.61523 2.07032,0.61523 h 4.6582 c 0.90134,0 1.5965,-0.19828 2.07031,-0.61523 0.47381,-0.41695 0.70703,-1.04454 0.70703,-1.84571 v -11.21679 c 0,-0.80116 -0.23322,-1.42876 -0.70703,-1.84571 -0.47381,-0.41694 -1.16897,-0.61523 -2.07031,-0.61523 z m 0,0.26367 h 4.6582 c 0.86254,0 1.48835,0.18967 1.89648,0.54883 0.40814,0.35916 0.61719,0.89739 0.61719,1.64844 v 11.21679 c 0,0.75106 -0.20905,1.28928 -0.61719,1.64844 -0.40813,0.35916 -1.03394,0.54883 -1.89648,0.54883 h -4.6582 c -0.86255,0 -1.48835,-0.18967 -1.89649,-0.54883 -0.40814,-0.35916 -0.61523,-0.89738 -0.61523,-1.64844 v -11.21679 c 0,-0.75105 0.20709,-1.28928 0.61523,-1.64844 0.40814,-0.35916 1.03394,-0.54883 1.89649,-0.54883 z"
         id="path889" />
    </g>
    <path
       style="color:#000000;font-style:normal;font-variant:normal;font-weight:bold;font-stretch:normal;font-size:105.833px;line-height:1.25;font-family:Teko;-inkscape-font-specification:'Teko Bold';font-variant-ligatures:normal;font-variant-position:normal;font-variant-caps:normal;font-variant-numeric:normal;font-variant-alternates:normal;font-variant-east-asian:normal;font-feature-settings:normal;font-variation-settings:normal;text-indent:0;text-align:start;text-decoration:none;text-decoration-line:none;text-decoration-style:solid;text-decoration-color:#000000;letter-spacing:normal;word-spacing:normal;text-transform:none;writing-mode:lr-tb;direction:ltr;text-orientation:mixed;dominant-baseline:auto;baseline-shift:baseline;text-anchor:start;white-space:normal;shape-padding:0;shape-margin:0;inline-size:0;clip-rule:nonzero;display:inline;overflow:visible;visibility:visible;opacity:1;isolation:auto;mix-blend-mode:normal;color-interpolation:sRGB;color-interpolation-filters:linearRGB;solid-color:#000000;solid-opacity:1;vector-effect:none;fill:#29415f;fill-opacity:1;fill-rule:nonzero;stroke:none;stroke-width:0.264583;stroke-linecap:butt;stroke-linejoin:miter;stroke-miterlimit:4;stroke-dasharray:none;stroke-dashoffset:0;stroke-opacity:1;color-rendering:auto;image-rendering:auto;shape-rendering:auto;text-rendering:auto;enable-background:accumulate;stop-color:#000000;stop-opacity:1"
       d="m 201.26576,130.06911 v 13.44079 h -7.19664 v 12.17079 H 176.7125 V 143.5099 h -28.04574 v -16.40412 l 25.50575,-39.369872 h 18.62661 l -27.30491,42.333202 h 11.21829 v -13.44079 h 17.35662 v 13.44079 z"
       id="path893"
       transform="translate(-6.5203123e-4,110.31434)" />
    <path
       style="color:#000000;font-style:normal;font-variant:normal;font-weight:bold;font-stretch:normal;font-size:105.833px;line-height:1.25;font-family:Teko;-inkscape-font-specification:'Teko Bold';font-variant-ligatures:normal;font-variant-position:normal;font-variant-caps:normal;font-variant-numeric:normal;font-variant-alternates:normal;font-variant-east-asian:normal;font-feature-settings:normal;font-variation-settings:normal;text-indent:0;text-align:start;text-decoration:none;text-decoration-line:none;text-decoration-style:solid;text-decoration-color:#000000;letter-spacing:normal;word-spacing:normal;text-transform:none;writing-mode:lr-tb;direction:ltr;text-orientation:mixed;dominant-baseline:auto;baseline-shift:baseline;text-anchor:start;white-space:normal;shape-padding:0;shape-margin:0;inline-size:0;clip-rule:nonzero;display:inline;overflow:visible;visibility:visible;opacity:1;isolation:auto;mix-blend-mode:normal;color-interpolation:sRGB;color-interpolation-filters:linearRGB;solid-color:#000000;solid-opacity:1;vector-effect:none;fill:#29415f;fill-opacity:1;fill-rule:nonzero;stroke:none;stroke-width:0.264583;stroke-linecap:butt;stroke-linejoin:miter;stroke-miterlimit:4;stroke-dasharray:none;stroke-dashoffset:0;stroke-opacity:1;color-rendering:auto;image-rendering:auto;shape-rendering:auto;text-rendering:auto;enable-background:accumulate;stop-color:#000000;stop-opacity:1"
       d="m 174.10156,87.603516 -25.5664,39.462894 v 16.57617 h 28.04492 v 12.16992 h 17.62109 v -12.16992 h 7.19727 V 129.9375 h -0.13282 -7.06445 v -13.44141 h -17.62109 v 13.44141 h -10.84375 l 27.30469,-42.333984 z m 0.14258,0.265625 h 18.31055 l -27.30274,42.332029 h 11.59375 v -13.4414 h 17.0918 v 13.4414 h 7.19531 v 13.17578 h -7.19531 v 12.17188 h -17.0918 v -12.17188 h -28.04687 v -16.23242 z"
       id="path895"
       transform="translate(-6.5203123e-4,110.31434)" />
    <path
       id="rect903"
       style="font-size:105.833px;line-height:1.25;font-family:Poppins;-inkscape-font-specification:Poppins;display:inline;fill:#ebebeb;fill-opacity:1;stroke:none;stroke-width:0;stroke-linecap:round;stroke-miterlimit:4;stroke-dasharray:none"
       d="m 114.52777,210.23747 c 3.57583,-2.86066 9.15412,-3.14673 13.44512,0 v 12.30087 c -4.14796,3.4328 -9.01109,3.4328 -13.44512,0 z"
       sodipodi:nodetypes="ccccc" />
    <path
       id="path910"
       style="font-size:105.833px;line-height:1.25;font-family:Poppins;-inkscape-font-specification:Poppins;display:inline;fill:#ededed;fill-opacity:1;stroke:none;stroke-width:0;stroke-linecap:round;stroke-miterlimit:4;stroke-dasharray:none"
       d="m 114.52777,241.45832 c 3.57583,-2.86066 9.15412,-3.14673 13.44512,0 v 12.30085 c -4.14796,3.4328 -9.01109,3.4328 -13.44512,0 z"
       sodipodi:nodetypes="ccccc" />
    <path
       id="path916"
       style="font-size:105.833px;line-height:1.25;font-family:Poppins;-inkscape-font-specification:Poppins;display:inline;fill:#ededed;fill-opacity:1;stroke:none;stroke-width:0;stroke-linecap:round;stroke-miterlimit:4;stroke-dasharray:none"
       d="m 61.648858,210.23747 c 3.57583,-2.86066 9.15412,-3.14673 13.44512,0 v 12.30087 c -4.14796,3.4328 -9.01109,3.4328 -13.44512,0 z"
       sodipodi:nodetypes="ccccc" />
    <text
       xml:space="preserve"
       style="font-size:38.1px;line-height:1.25;font-family:Poppins;-inkscape-font-specification:Poppins;display:inline;fill:#29415f;fill-opacity:1;stroke-width:0.0700042"
       x="14.894589"
       y="306.87576"
       id="text966"><tspan
         sodipodi:role="line"
         id="tspan964"
         x="14.894589"
         y="306.87576"
         style="font-style:normal;font-variant:normal;font-weight:normal;font-stretch:normal;font-size:38.1px;font-family:Teko;-inkscape-font-specification:Teko;fill:#29415f;fill-opacity:1;stroke-width:0.0700042">GEORGE ORWELL</tspan></text>
    <g
       id="g874"
       transform="translate(0,53.979707)"
       style="font-size:105.833px;line-height:1.25;font-family:Poppins;-inkscape-font-specification:Poppins;display:inline;stroke-width:0.264583">
      <rect
         style="fill:#000000;fill-opacity:1;stroke:none;stroke-width:0;stroke-linecap:round;stroke-miterlimit:4;stroke-dasharray:none"
         id="rect859"
         width="5.7658548"
         height="7.6307163"
         x="118.3674"
         y="159.81142"
         ry="2.7335572"
         rx="0" />
      <circle
         style="fill:#ffffff;fill-opacity:1;stroke:none;stroke-width:2.11667;stroke-linecap:round;stroke-miterlimit:4;stroke-dasharray:none;stroke-opacity:1"
         id="path870"
         cx="122.30958"
         cy="161.77235"
         r="1.0302068" />
    </g>
    <g
       id="g880"
       transform="translate(0,85.72971)"
       style="font-size:105.833px;line-height:1.25;font-family:Poppins;-inkscape-font-specification:Poppins;display:inline;stroke-width:0.264583">
      <rect
         style="fill:#000000;fill-opacity:1;stroke:none;stroke-width:0;stroke-linecap:round;stroke-miterlimit:4;stroke-dasharray:none"
         id="rect876"
         width="5.7658548"
         height="7.6307163"
         x="118.3674"
         y="159.81142"
         ry="2.7335572"
         rx="0" />
      <circle
         style="fill:#ffffff;fill-opacity:1;stroke:none;stroke-width:2.11667;stroke-linecap:round;stroke-miterlimit:4;stroke-dasharray:none;stroke-opacity:1"
         id="circle878"
         cx="122.30958"
         cy="161.77235"
         r="1.0302068" />
    </g>
    <g
       id="g886"
       transform="translate(-52.916669,53.979707)"
       style="font-size:105.833px;line-height:1.25;font-family:Poppins;-inkscape-font-specification:Poppins;display:inline;stroke-width:0.264583">
      <rect
         style="fill:#000000;fill-opacity:1;stroke:none;stroke-width:0;stroke-linecap:round;stroke-miterlimit:4;stroke-dasharray:none"
         id="rect882"
         width="5.7658548"
         height="7.6307163"
         x="118.3674"
         y="159.81142"
         ry="2.7335572"
         rx="0" />
      <circle
         style="fill:#ffffff;fill-opacity:1;stroke:none;stroke-width:2.11667;stroke-linecap:round;stroke-miterlimit:4;stroke-dasharray:none;stroke-opacity:1"
         id="circle884"
         cx="122.30958"
         cy="161.77235"
         r="1.0302068" />
    </g>
  </g>
</svg>
